<svg id="Layer_1" data-name="Layer 1" xmlns="http://www.w3.org/2000/svg" viewBox="0 0 30 65"><defs><style>.cls-1{fill:#111c4e;}</style></defs><title>logo-911-temp</title><path d="M17.88,21.23H30v2.68H17.88Zm0,5.13H30V29H17.88Zm0-10.28H30v2.67H17.88Zm0-5.16H30v2.67H17.88Zm0,20.57H30v2.68H17.88Zm0,5.14H30V39.3H17.88Zm0,5.13H30v2.67H17.88Zm0,5.13H30v2.67H17.88Zm0,5.13H30v2.67H17.88Zm0,5.13H30v2.68H17.88Zm0,5.13H30V65H17.88Z"/><path class="cls-1" d="M0,11V65H12.12V11ZM7.17,62.12l-1.11-.81L5,62.12l.42-1.31L4.27,60H5.64l.42-1.31L6.48,60H7.86l-1.11.82Zm-.42-6.94.42,1.31-1.11-.81L5,56.49l.42-1.31-1.1-.82H5.64l.42-1.31.42,1.31H7.86Zm0-5.61.42,1.32-1.11-.82L5,50.86l.42-1.32-1.1-.81H5.64l.42-1.31.42,1.32H7.86Zm0-5.61.42,1.32-1.11-.81L5,45.23l.42-1.32-1.1-.81H5.64l.42-1.32.42,1.32H7.86Zm0-5.61.42,1.32-1.11-.82L5,39.67l.42-1.32-1.1-.88H5.64l.42-1.32.42,1.32H7.86Zm0-5.61.42,1.32-1.11-.91L5,34l.42-1.33-1.1-.81H5.64l.42-1.31.42,1.31H7.86Zm0-5.61.42,1.32-1.11-.91L5,28.34,5.37,27l-1.1-.83H5.64l.42-1.31.42,1.31H7.86Zm0-5.61.42,1.32L6.06,22,5,22.71l.42-1.29-1.1-.84H5.64l.42-1.32.42,1.32H7.86Zm0-5.63.42,1.32-1.11-.82L5,17.21l.42-1.32L4.27,15H5.64l.42-1.32L6.48,15H7.86Z"/><path d="M23.71,0h.46V11h-.46Z"/></svg>