<svg xmlns="http://www.w3.org/2000/svg" xmlns:xlink="http://www.w3.org/1999/xlink" viewBox="0 0 400 31.69"><defs><style>.cls-10,.cls-3{fill:none}.cls-5{opacity:.5}.cls-8{clip-path:url(#clip-path-3)}.cls-10{stroke:#fff;stroke-linecap:round;stroke-miterlimit:10;stroke-width:1.38px}.cls-11{clip-path:url(#clip-path-5)}</style><linearGradient id="linear-gradient" x1="-177.17" y1="-1243.31" x2="-175.33" y2="-1243.31" gradientTransform="translate(22953.38 161511.51) scale(129.87)" gradientUnits="userSpaceOnUse"><stop offset="0"/><stop offset=".24"/><stop offset=".99" stop-color="#fff"/><stop offset=".99" stop-color="#fff"/><stop offset="1" stop-color="#fff"/></linearGradient><linearGradient id="linear-gradient-2" x1="-181.58" y1="-1263.22" x2="-179.74" y2="-1263.22" gradientTransform="rotate(180 -11546.57 -82015.94) scale(129.87)" xlink:href="#linear-gradient"/><clipPath id="clip-path" transform="translate(-16.58 -13.74)"><path class="cls-3" d="M16.58 13.74h400v31.69h-400z"/></clipPath><clipPath id="clip-path-2" transform="translate(-16.58 -13.74)"><path class="cls-3" d="M183.3 0h66.71v48.37H183.3z"/></clipPath><clipPath id="clip-path-3" transform="translate(-16.58 -13.74)"><path class="cls-3" d="M0 30.24h215.05v16.12H0z"/></clipPath><filter id="luminosity-noclip" x="0" y="30.24" width="215.05" height="16.12" filterUnits="userSpaceOnUse" color-interpolation-filters="sRGB"><feFlood flood-color="#fff" result="bg"/><feBlend in="SourceGraphic" in2="bg"/></filter><mask id="mask" x="-16.58" y="16.5" width="215.05" height="16.12" maskUnits="userSpaceOnUse"><g filter="url(#luminosity-noclip)"><path fill="url(#linear-gradient)" d="M0 30.24h215.05v16.12H0z" transform="translate(-16.58 -13.74)"/></g></mask><clipPath id="clip-path-5" transform="translate(-16.58 -13.74)"><path class="cls-3" d="M218.26 19.18h214.9V35.3h-214.9z"/></clipPath><filter id="luminosity-noclip-2" x="218.26" y="19.18" width="214.9" height="16.12" filterUnits="userSpaceOnUse" color-interpolation-filters="sRGB"><feFlood flood-color="#fff" result="bg"/><feBlend in="SourceGraphic" in2="bg"/></filter><mask id="mask-2" x="201.68" y="5.44" width="214.9" height="16.12" maskUnits="userSpaceOnUse"><g filter="url(#luminosity-noclip-2)"><path fill="url(#linear-gradient-2)" d="M218.26 19.18h214.9V35.3h-214.9z" transform="translate(-16.58 -13.74)"/></g></mask></defs><g id="Layer_2" data-name="Layer 2"><g clip-path="url(#clip-path)" id="Layer_1-2" data-name="Layer 1"><g clip-path="url(#clip-path-2)"><path fill="#fff" d="M210.22 31.45l-10.07-7.33-9.93 7.57 3.7-12.11-10.07-7.33 12.36-.15 3.7-12.1 3.94 12.02 12.36-.15-9.93 7.57 3.94 12.01z"/></g><g class="cls-5"><g class="cls-8"><g class="cls-8" mask="url(#mask)"><path class="cls-10" d="M.69 19.03h180.5"/></g></g></g><g class="cls-5"><g class="cls-11"><g class="cls-11" mask="url(#mask-2)"><path class="cls-10" d="M399.31 19.03H218.96"/></g></g></g></g></g></svg>