<svg xmlns="http://www.w3.org/2000/svg" viewBox="0 0 59 127.44">
  <path d="M35.16 41.64H59v5.24H35.16zM35.16 51.7H59v5.24H35.16zM35.16 31.53H59v5.24H35.16zM35.16 21.42H59v5.24H35.16zM35.16 61.76H59v5.25H35.16zM35.16 71.83H59v5.24H35.16zM35.16 81.89H59v5.25H35.16zM35.16 91.95H59v5.24H35.16zM35.16 102.02H59v5.24H35.16zM35.16 112.08H59v5.25H35.16zM35.16 122.14H59v5.24H35.16z" fill="fill:#e1251b"/>
  <path fill="#111c4e" d="M0 21.47v106h23.84v-106zm14.1 100.36l-2.18-1.59-2.18 1.59.83-2.58-2.17-1.6h2.69l.83-2.58.83 2.58h2.7l-2.18 1.6zm-.83-13.62l.83 2.58-2.18-1.6-2.18 1.6.83-2.58-2.17-1.6h2.69l.83-2.58.83 2.58h2.7zm0-11l.83 2.58-2.18-1.59-2.18 1.54.83-2.58-2.17-1.6h2.69l.83-2.56.83 2.58h2.7zm0-11l.83 2.58-2.18-1.59-2.18 1.5.83-2.58-2.17-1.6h2.69l.83-2.58.83 2.58h2.7zm0-11l.83 2.58-2.18-1.6-2.18 1.6.83-2.58-2.17-1.73h2.69l.83-2.58.83 2.58h2.7zm0-11l.83 2.58L11.92 65l-2.18 1.61.83-2.61-2.17-1.57h2.69l.83-2.57.83 2.57h2.7zm0-11l.83 2.58L11.92 54l-2.18 1.57.83-2.57-2.17-1.61h2.69l.83-2.58.83 2.58h2.7zm0-11l.83 2.58-2.18-1.59-2.18 1.33.83-2.53-2.17-1.65h2.69l.83-2.58.83 2.58h2.7zm0-11.05l.83 2.59-2.18-1.6-2.18 1.6.83-2.59-2.17-1.85h2.69l.83-2.58.83 2.58h2.7z"/>
  <path d="M46.63 0h.9v21.47h-.9z" fill="fill:#e1251b"/>
</svg>
