<svg xmlns="http://www.w3.org/2000/svg" xmlns:xlink="http://www.w3.org/1999/xlink" viewBox="0 0 400 31.69"><defs><style>.cls-1{fill:url(#linear-gradient);}.cls-2{fill:url(#linear-gradient-2);}.cls-10,.cls-3{fill:none;}.cls-4{clip-path:url(#clip-path);}.cls-5{opacity:0.5;}.cls-6{clip-path:url(#clip-path-2);}.cls-7{fill:#fff;}.cls-8{clip-path:url(#clip-path-3);}.cls-9{mask:url(#mask);}.cls-10{stroke:#fff;stroke-linecap:round;stroke-miterlimit:10;stroke-width:1.38px;}.cls-11{clip-path:url(#clip-path-5);}.cls-12{mask:url(#mask-2);}.cls-13{filter:url(#luminosity-noclip-2);}.cls-14{filter:url(#luminosity-noclip);}</style><linearGradient id="linear-gradient" x1="-177.17" y1="-1243.31" x2="-175.33" y2="-1243.31" gradientTransform="translate(22953.38 161511.51) scale(129.87)" gradientUnits="userSpaceOnUse"><stop offset="0"/><stop offset="0.24"/><stop offset="0.99" stop-color="#fff"/><stop offset="0.99" stop-color="#fff"/><stop offset="1" stop-color="#fff"/></linearGradient><linearGradient id="linear-gradient-2" x1="-181.58" y1="-1263.22" x2="-179.74" y2="-1263.22" gradientTransform="translate(-23093.14 -164031.88) rotate(180) scale(129.87)" xlink:href="#linear-gradient"/><clipPath id="clip-path" transform="translate(-16.58 -13.74)"><rect class="cls-3" x="16.58" y="13.74" width="400" height="31.69"/></clipPath><clipPath id="clip-path-2" transform="translate(-16.58 -13.74)"><rect class="cls-3" x="183.3" width="66.71" height="48.37"/></clipPath><clipPath id="clip-path-3" transform="translate(-16.58 -13.74)"><rect class="cls-3" y="30.24" width="215.05" height="16.12"/></clipPath><filter id="luminosity-noclip" x="0" y="30.24" width="215.05" height="16.12" filterUnits="userSpaceOnUse" color-interpolation-filters="sRGB"><feFlood flood-color="#fff" result="bg"/><feBlend in="SourceGraphic" in2="bg"/></filter><mask id="mask" x="-16.58" y="16.5" width="215.05" height="16.12" maskUnits="userSpaceOnUse"><g class="cls-14"><g transform="translate(-16.58 -13.74)"><rect class="cls-1" y="30.24" width="215.05" height="16.12"/></g></g></mask><clipPath id="clip-path-5" transform="translate(-16.58 -13.74)"><rect class="cls-3" x="218.26" y="19.18" width="214.9" height="16.12"/></clipPath><filter id="luminosity-noclip-2" x="218.26" y="19.18" width="214.9" height="16.12" filterUnits="userSpaceOnUse" color-interpolation-filters="sRGB"><feFlood flood-color="#fff" result="bg"/><feBlend in="SourceGraphic" in2="bg"/></filter><mask id="mask-2" x="201.68" y="5.44" width="214.9" height="16.12" maskUnits="userSpaceOnUse"><g class="cls-13"><g transform="translate(-16.58 -13.74)"><rect class="cls-2" x="218.26" y="19.18" width="214.9" height="16.12"/></g></g></mask></defs><title>Asset 6</title><g id="Layer_2" data-name="Layer 2"><g id="Layer_1-2" data-name="Layer 1"><g class="cls-4"><g class="cls-5"><g class="cls-6"><polygon class="cls-7" points="210.22 31.45 200.15 24.12 190.22 31.69 193.92 19.58 183.85 12.25 196.21 12.1 199.91 0 203.85 12.02 216.21 11.87 206.28 19.44 210.22 31.45"/></g></g><g class="cls-5"><g class="cls-8"><g class="cls-9"><g class="cls-8"><line class="cls-10" x1="0.69" y1="19.03" x2="181.19" y2="19.03"/></g></g></g></g><g class="cls-5"><g class="cls-11"><g class="cls-12"><g class="cls-11"><line class="cls-10" x1="399.31" y1="19.03" x2="218.96" y2="19.03"/></g></g></g></g></g></g></g></svg>