<?xml version="1.0" standalone="no"?>
<!DOCTYPE svg PUBLIC "-//W3C//DTD SVG 20010904//EN"
 "http://www.w3.org/TR/2001/REC-SVG-20010904/DTD/svg10.dtd">
<svg version="1.0" xmlns="http://www.w3.org/2000/svg"
 width="700.000000pt" height="700.000000pt" viewBox="0 0 700.000000 700.000000"
 preserveAspectRatio="xMidYMid meet">
<metadata>
Created by potrace 1.11, written by Peter Selinger 2001-2013
</metadata>
<g transform="translate(0.000000,700.000000) scale(0.100000,-0.100000)"
fill="#000000" stroke="none">
<path d="M4180 5972 c-13 -2 -15 -54 -15 -415 l0 -412 -220 -1 -220 -1 -3
-101 -3 -102 464 0 463 0 0 93 c-1 50 -4 97 -8 102 -4 6 -88 10 -222 9 l-216
-1 -2 416 c-3 366 -5 416 -18 413z"/>
<path d="M2358 5133 c-4 -22 -3 -4103 1 -4104 3 -1 212 -2 464 -3 l457 -1 0
2057 0 2058 -460 0 c-253 0 -461 -3 -462 -7z m486 -273 c10 -21 18 -25 60 -24
52 0 53 3 -13 -45 -24 -18 -24 -18 -7 -61 9 -23 15 -44 13 -46 -2 -2 -22 10
-44 26 -36 27 -42 28 -54 14 -7 -8 -25 -22 -41 -30 l-29 -15 16 37 c22 52 20
59 -26 93 l-42 30 46 -3 c26 -1 51 0 56 3 5 3 15 26 22 50 12 41 14 42 22 20
5 -13 14 -35 21 -49z m-4 -436 c0 -12 57 -21 105 -15 6 0 -1 -7 -14 -17 -65
-45 -63 -43 -46 -91 8 -24 15 -45 15 -48 0 -2 -19 9 -43 25 l-42 30 -38 -30
c-41 -33 -42 -31 -26 27 11 39 10 40 -27 72 l-39 33 51 0 52 0 12 48 12 47 14
-34 c8 -18 14 -40 14 -47z m0 -416 c9 -26 14 -28 62 -28 l52 0 -42 -31 c-23
-17 -42 -31 -42 -32 0 -1 7 -24 15 -50 l14 -48 -41 30 -41 30 -38 -30 c-43
-34 -44 -33 -27 24 12 40 12 40 -27 73 l-40 34 51 0 c48 0 52 2 60 28 11 41
11 41 13 55 2 12 13 -7 31 -55z m0 -430 c9 -26 14 -28 62 -28 l52 0 -42 -31
c-23 -17 -42 -32 -42 -34 0 -1 7 -22 15 -45 8 -23 15 -45 15 -47 0 -3 -19 9
-42 26 -44 33 -44 33 -95 -13 -27 -23 -30 -11 -11 42 13 33 12 35 -27 68 l-40
34 51 0 51 0 14 47 c13 49 14 49 39 -19z m0 -430 c9 -25 14 -28 57 -28 l48 0
-38 -33 -38 -32 15 -44 c9 -24 16 -46 16 -48 0 -3 -18 10 -41 27 l-40 33 -44
-32 -43 -31 16 50 c15 48 15 51 -4 64 -63 46 -63 45 -8 46 l52 0 12 48 c13 50
14 49 40 -20z m-5 -416 c10 -36 12 -37 58 -37 26 0 47 -3 47 -7 0 -4 -15 -17
-32 -29 -18 -12 -35 -24 -37 -25 -2 -2 4 -23 12 -48 9 -26 13 -46 10 -46 -3 0
-21 12 -40 26 l-34 26 -37 -26 c-20 -14 -38 -24 -40 -21 -2 2 1 18 7 36 17 48
14 55 -26 81 l-38 23 49 5 c48 5 50 6 64 48 16 48 22 47 37 -6z m-2 -423 c13
-44 13 -44 60 -44 26 0 47 -3 47 -6 0 -4 -16 -17 -35 -30 -36 -25 -38 -36 -16
-91 13 -35 7 -35 -36 -2 l-34 26 -37 -26 c-38 -27 -51 -22 -33 13 19 36 12 58
-25 81 -19 12 -33 24 -31 26 2 2 23 5 47 7 43 2 45 3 60 49 8 25 16 45 18 44
1 -2 8 -23 15 -47z m7 -447 c11 -28 17 -32 44 -31 58 3 60 0 22 -33 l-37 -33
15 -42 c8 -24 13 -43 10 -43 -3 0 -20 11 -38 25 -18 14 -36 25 -40 25 -4 0
-24 -12 -43 -27 l-37 -28 7 25 c21 74 21 76 -18 100 -43 26 -39 33 17 34 41 1
42 2 57 50 12 37 17 44 22 30 4 -11 13 -34 19 -52z m-5 -411 l16 -49 44 3 c25
1 45 -1 45 -4 0 -3 -16 -17 -35 -30 -37 -25 -39 -36 -16 -93 13 -34 8 -35 -33
-3 -18 14 -36 25 -40 25 -4 0 -24 -12 -43 -27 l-37 -28 7 25 c21 74 21 77 -19
104 -21 14 -36 26 -34 27 3 1 23 2 45 4 22 1 43 3 46 4 4 0 12 21 19 46 7 25
14 45 15 45 2 0 11 -22 20 -49z"/>
<path d="M3722 4648 l3 -102 445 -1 c245 0 452 1 461 3 14 3 16 19 15 103 l-1
99 -463 0 -463 0 3 -102z"/>
<path d="M3720 4256 l0 -103 453 1 c248 1 457 4 463 8 7 5 11 42 10 100 l-1
93 -462 2 -463 1 0 -102z"/>
<path d="M3720 3865 l0 -102 458 2 c251 1 460 3 463 3 3 1 5 46 5 100 l-1 97
-462 1 -463 1 0 -102z"/>
<path d="M3720 3474 l0 -103 463 2 462 2 1 98 c0 62 -3 98 -10 99 -6 0 -215 2
-463 3 l-453 1 0 -102z"/>
<path d="M3724 3181 c-2 -2 -4 -49 -4 -103 l0 -98 463 0 463 0 -1 93 c-1 50
-2 97 -3 102 -2 10 -908 16 -918 6z"/>
<path d="M3724 2791 c-2 -2 -4 -49 -4 -103 l0 -98 464 0 463 0 -1 102 -1 103
-458 0 c-252 0 -461 -2 -463 -4z"/>
<path d="M3724 2401 c-2 -2 -4 -48 -4 -102 l0 -98 313 -3 c171 -2 380 -1 462
2 l150 5 1 98 c1 53 -2 97 -5 98 -20 3 -913 3 -917 0z"/>
<path d="M3758 2012 l-38 -3 0 -100 0 -99 463 0 463 0 0 101 -1 102 -425 1
c-234 0 -442 0 -462 -2z"/>
<path d="M3730 1622 c-6 -2 -10 -46 -10 -103 0 -96 1 -99 23 -100 31 -1 857
-1 883 0 19 1 21 7 20 101 l0 100 -50 0 c-400 4 -858 4 -866 2z"/>
<path d="M3722 1128 l3 -101 460 0 460 0 1 101 1 102 -464 0 -464 0 3 -102z"/>
</g>
</svg>
